<mxfile host="app.diagrams.net" modified="2021-06-06T03:13:07.506Z" agent="5.0 (Windows NT 10.0; Win64; x64) AppleWebKit/537.36 (KHTML, like Gecko) Chrome/91.0.4472.77 Safari/537.36" etag="2V1lE2w_AEIZkji-69iR" version="14.7.6" type="github">
  <diagram id="qNtHvHr-Q_ltwnV1EGBj" name="Page-1">
    <mxGraphModel dx="912" dy="695" grid="1" gridSize="10" guides="1" tooltips="1" connect="1" arrows="1" fold="1" page="1" pageScale="1" pageWidth="827" pageHeight="1169" math="0" shadow="0">
      <root>
        <mxCell id="0" />
        <mxCell id="1" parent="0" />
        <mxCell id="AVx37dbrthC-fl5LdiXb-28" value="Meeting Room" style="swimlane;fontStyle=1;align=center;verticalAlign=top;childLayout=stackLayout;horizontal=1;startSize=26;horizontalStack=0;resizeParent=1;resizeParentMax=0;resizeLast=0;collapsible=1;marginBottom=0;" vertex="1" parent="1">
          <mxGeometry x="1105" y="120" width="185" height="104" as="geometry" />
        </mxCell>
        <mxCell id="AVx37dbrthC-fl5LdiXb-29" value="room ID" style="text;strokeColor=none;fillColor=none;align=left;verticalAlign=top;spacingLeft=4;spacingRight=4;overflow=hidden;rotatable=0;points=[[0,0.5],[1,0.5]];portConstraint=eastwest;" vertex="1" parent="AVx37dbrthC-fl5LdiXb-28">
          <mxGeometry y="26" width="185" height="26" as="geometry" />
        </mxCell>
        <mxCell id="AVx37dbrthC-fl5LdiXb-30" value="room type" style="text;strokeColor=none;fillColor=none;align=left;verticalAlign=top;spacingLeft=4;spacingRight=4;overflow=hidden;rotatable=0;points=[[0,0.5],[1,0.5]];portConstraint=eastwest;" vertex="1" parent="AVx37dbrthC-fl5LdiXb-28">
          <mxGeometry y="52" width="185" height="26" as="geometry" />
        </mxCell>
        <mxCell id="AVx37dbrthC-fl5LdiXb-31" value="create time" style="text;strokeColor=none;fillColor=none;align=left;verticalAlign=top;spacingLeft=4;spacingRight=4;overflow=hidden;rotatable=0;points=[[0,0.5],[1,0.5]];portConstraint=eastwest;" vertex="1" parent="AVx37dbrthC-fl5LdiXb-28">
          <mxGeometry y="78" width="185" height="26" as="geometry" />
        </mxCell>
        <mxCell id="AVx37dbrthC-fl5LdiXb-32" value="Java Application" style="swimlane;fontStyle=1;align=center;verticalAlign=top;childLayout=stackLayout;horizontal=1;startSize=26;horizontalStack=0;resizeParent=1;resizeParentMax=0;resizeLast=0;collapsible=1;marginBottom=0;" vertex="1" parent="1">
          <mxGeometry x="835" y="30" width="160" height="28" as="geometry" />
        </mxCell>
        <mxCell id="AVx37dbrthC-fl5LdiXb-33" value="use" style="edgeStyle=orthogonalEdgeStyle;rounded=0;orthogonalLoop=1;jettySize=auto;html=1;endArrow=open;endFill=0;" edge="1" parent="1" source="AVx37dbrthC-fl5LdiXb-35" target="AVx37dbrthC-fl5LdiXb-28">
          <mxGeometry relative="1" as="geometry">
            <Array as="points">
              <mxPoint x="1040" y="202" />
              <mxPoint x="1040" y="202" />
            </Array>
            <mxPoint x="640" y="242" as="targetPoint" />
          </mxGeometry>
        </mxCell>
        <mxCell id="AVx37dbrthC-fl5LdiXb-34" style="edgeStyle=orthogonalEdgeStyle;rounded=0;orthogonalLoop=1;jettySize=auto;html=1;exitX=0.5;exitY=0;exitDx=0;exitDy=0;" edge="1" parent="1" source="AVx37dbrthC-fl5LdiXb-35" target="AVx37dbrthC-fl5LdiXb-32">
          <mxGeometry relative="1" as="geometry" />
        </mxCell>
        <mxCell id="AVx37dbrthC-fl5LdiXb-35" value="User" style="swimlane;fontStyle=1;align=center;verticalAlign=top;childLayout=stackLayout;horizontal=1;startSize=26;horizontalStack=0;resizeParent=1;resizeParentMax=0;resizeLast=0;collapsible=1;marginBottom=0;" vertex="1" parent="1">
          <mxGeometry x="850" y="163" width="130" height="78" as="geometry" />
        </mxCell>
        <mxCell id="AVx37dbrthC-fl5LdiXb-36" value="UserId" style="text;strokeColor=none;fillColor=none;align=left;verticalAlign=top;spacingLeft=4;spacingRight=4;overflow=hidden;rotatable=0;points=[[0,0.5],[1,0.5]];portConstraint=eastwest;" vertex="1" parent="AVx37dbrthC-fl5LdiXb-35">
          <mxGeometry y="26" width="130" height="26" as="geometry" />
        </mxCell>
        <mxCell id="AVx37dbrthC-fl5LdiXb-37" value="nickname" style="text;strokeColor=none;fillColor=none;align=left;verticalAlign=top;spacingLeft=4;spacingRight=4;overflow=hidden;rotatable=0;points=[[0,0.5],[1,0.5]];portConstraint=eastwest;" vertex="1" parent="AVx37dbrthC-fl5LdiXb-35">
          <mxGeometry y="52" width="130" height="26" as="geometry" />
        </mxCell>
        <mxCell id="AVx37dbrthC-fl5LdiXb-38" style="edgeStyle=orthogonalEdgeStyle;rounded=0;orthogonalLoop=1;jettySize=auto;html=1;endArrow=block;endFill=0;" edge="1" parent="1" source="AVx37dbrthC-fl5LdiXb-39" target="AVx37dbrthC-fl5LdiXb-28">
          <mxGeometry relative="1" as="geometry">
            <Array as="points">
              <mxPoint x="1150" y="290" />
              <mxPoint x="1150" y="290" />
            </Array>
          </mxGeometry>
        </mxCell>
        <mxCell id="AVx37dbrthC-fl5LdiXb-39" value="Instant Meeting Room" style="swimlane;fontStyle=1;align=center;verticalAlign=top;childLayout=stackLayout;horizontal=1;startSize=26;horizontalStack=0;resizeParent=1;resizeParentMax=0;resizeLast=0;collapsible=1;marginBottom=0;" vertex="1" parent="1">
          <mxGeometry x="1070" y="326" width="170" height="104" as="geometry" />
        </mxCell>
        <mxCell id="AVx37dbrthC-fl5LdiXb-40" value="room ID" style="text;strokeColor=none;fillColor=none;align=left;verticalAlign=top;spacingLeft=4;spacingRight=4;overflow=hidden;rotatable=0;points=[[0,0.5],[1,0.5]];portConstraint=eastwest;" vertex="1" parent="AVx37dbrthC-fl5LdiXb-39">
          <mxGeometry y="26" width="170" height="26" as="geometry" />
        </mxCell>
        <mxCell id="AVx37dbrthC-fl5LdiXb-41" value="room type" style="text;strokeColor=none;fillColor=none;align=left;verticalAlign=top;spacingLeft=4;spacingRight=4;overflow=hidden;rotatable=0;points=[[0,0.5],[1,0.5]];portConstraint=eastwest;" vertex="1" parent="AVx37dbrthC-fl5LdiXb-39">
          <mxGeometry y="52" width="170" height="26" as="geometry" />
        </mxCell>
        <mxCell id="AVx37dbrthC-fl5LdiXb-42" value="create time" style="text;strokeColor=none;fillColor=none;align=left;verticalAlign=top;spacingLeft=4;spacingRight=4;overflow=hidden;rotatable=0;points=[[0,0.5],[1,0.5]];portConstraint=eastwest;" vertex="1" parent="AVx37dbrthC-fl5LdiXb-39">
          <mxGeometry y="78" width="170" height="26" as="geometry" />
        </mxCell>
        <mxCell id="AVx37dbrthC-fl5LdiXb-43" style="edgeStyle=orthogonalEdgeStyle;rounded=0;orthogonalLoop=1;jettySize=auto;html=1;endArrow=block;endFill=0;" edge="1" parent="1" source="AVx37dbrthC-fl5LdiXb-44" target="AVx37dbrthC-fl5LdiXb-28">
          <mxGeometry relative="1" as="geometry">
            <Array as="points">
              <mxPoint x="1360" y="262" />
              <mxPoint x="1240" y="262" />
            </Array>
          </mxGeometry>
        </mxCell>
        <mxCell id="AVx37dbrthC-fl5LdiXb-44" value="Team Meeting Room" style="swimlane;fontStyle=1;align=center;verticalAlign=top;childLayout=stackLayout;horizontal=1;startSize=26;horizontalStack=0;resizeParent=1;resizeParentMax=0;resizeLast=0;collapsible=1;marginBottom=0;" vertex="1" parent="1">
          <mxGeometry x="1270" y="300" width="190" height="130" as="geometry" />
        </mxCell>
        <mxCell id="AVx37dbrthC-fl5LdiXb-45" value="room ID" style="text;strokeColor=none;fillColor=none;align=left;verticalAlign=top;spacingLeft=4;spacingRight=4;overflow=hidden;rotatable=0;points=[[0,0.5],[1,0.5]];portConstraint=eastwest;" vertex="1" parent="AVx37dbrthC-fl5LdiXb-44">
          <mxGeometry y="26" width="190" height="26" as="geometry" />
        </mxCell>
        <mxCell id="AVx37dbrthC-fl5LdiXb-46" value="room type" style="text;strokeColor=none;fillColor=none;align=left;verticalAlign=top;spacingLeft=4;spacingRight=4;overflow=hidden;rotatable=0;points=[[0,0.5],[1,0.5]];portConstraint=eastwest;" vertex="1" parent="AVx37dbrthC-fl5LdiXb-44">
          <mxGeometry y="52" width="190" height="26" as="geometry" />
        </mxCell>
        <mxCell id="AVx37dbrthC-fl5LdiXb-47" value="create time" style="text;strokeColor=none;fillColor=none;align=left;verticalAlign=top;spacingLeft=4;spacingRight=4;overflow=hidden;rotatable=0;points=[[0,0.5],[1,0.5]];portConstraint=eastwest;" vertex="1" parent="AVx37dbrthC-fl5LdiXb-44">
          <mxGeometry y="78" width="190" height="26" as="geometry" />
        </mxCell>
        <mxCell id="AVx37dbrthC-fl5LdiXb-48" value="is_activated" style="text;strokeColor=none;fillColor=none;align=left;verticalAlign=top;spacingLeft=4;spacingRight=4;overflow=hidden;rotatable=0;points=[[0,0.5],[1,0.5]];portConstraint=eastwest;" vertex="1" parent="AVx37dbrthC-fl5LdiXb-44">
          <mxGeometry y="104" width="190" height="26" as="geometry" />
        </mxCell>
        <mxCell id="AVx37dbrthC-fl5LdiXb-58" value="input" style="edgeStyle=orthogonalEdgeStyle;rounded=0;orthogonalLoop=1;jettySize=auto;html=1;endArrow=open;endFill=0;" edge="1" parent="1" source="AVx37dbrthC-fl5LdiXb-50" target="AVx37dbrthC-fl5LdiXb-35">
          <mxGeometry relative="1" as="geometry">
            <Array as="points">
              <mxPoint x="850" y="271" />
              <mxPoint x="890" y="271" />
            </Array>
          </mxGeometry>
        </mxCell>
        <mxCell id="AVx37dbrthC-fl5LdiXb-50" value="MIC" style="swimlane;fontStyle=1;align=center;verticalAlign=top;childLayout=stackLayout;horizontal=1;startSize=26;horizontalStack=0;resizeParent=1;resizeParentMax=0;resizeLast=0;collapsible=1;marginBottom=0;" vertex="1" parent="1">
          <mxGeometry x="800" y="300" width="100" height="52" as="geometry" />
        </mxCell>
        <mxCell id="AVx37dbrthC-fl5LdiXb-59" value="input" style="edgeStyle=orthogonalEdgeStyle;rounded=0;orthogonalLoop=1;jettySize=auto;html=1;endArrow=open;endFill=0;" edge="1" parent="1" source="AVx37dbrthC-fl5LdiXb-56" target="AVx37dbrthC-fl5LdiXb-35">
          <mxGeometry relative="1" as="geometry">
            <Array as="points">
              <mxPoint x="980" y="271" />
              <mxPoint x="940" y="271" />
            </Array>
          </mxGeometry>
        </mxCell>
        <mxCell id="AVx37dbrthC-fl5LdiXb-56" value="Webcam" style="swimlane;fontStyle=1;align=center;verticalAlign=top;childLayout=stackLayout;horizontal=1;startSize=26;horizontalStack=0;resizeParent=1;resizeParentMax=0;resizeLast=0;collapsible=1;marginBottom=0;" vertex="1" parent="1">
          <mxGeometry x="930" y="300" width="100" height="52" as="geometry" />
        </mxCell>
      </root>
    </mxGraphModel>
  </diagram>
</mxfile>
